<svg xmlns="http://www.w3.org/2000/svg" viewBox="0 0 180 140"><circle cx="90" cy="72" r="62" fill="#FFF0EB"/><rect x="54" y="58" width="72" height="58" rx="14" fill="#1B6B4A"/><path d="M70 58V44a20 20 0 0 1 40 0v14" fill="none" stroke="#1B6B4A" stroke-width="10" stroke-linecap="round"/><rect x="54" y="58" width="72" height="14" rx="7" fill="#155C3C" opacity="0.5"/><circle cx="90" cy="84" r="8" fill="#FFFFFF"/><rect x="87" y="86" width="6" height="16" rx="3" fill="#FFFFFF"/><g transform="rotate(-28 140 100)"><circle cx="140" cy="100" r="12" fill="none" stroke="#E76F51" stroke-width="6"/><rect x="150" y="97" width="30" height="6" rx="3" fill="#E76F51"/><rect x="170" y="103" width="5" height="8" rx="2" fill="#E76F51"/></g><path d="M30 34l2 5.5 5.5 2-5.5 2-2 5.5-2-5.5-5.5-2 5.5-2z" fill="#E76F51" opacity="0.7"/></svg>
